<svg width="290" height="238" viewBox="0 0 290 238" fill="none" xmlns="http://www.w3.org/2000/svg">
<rect x="174" width="58" height="58" fill="#BB0606"/>
<rect x="116" y="58" width="58" height="58" fill="#FF8585"/>
<rect x="232" y="58" width="58" height="58" fill="#A30909"/>
<path d="M148.006 118L156.021 126.015C167.062 137.056 167.062 154.957 156.021 165.998V165.998C151.594 170.424 144.416 170.422 139.99 165.996V165.996C128.952 154.958 128.948 137.058 139.986 126.02L148.006 118Z" fill="#A30909"/>
<path d="M204.006 60L212.021 68.0147C223.062 79.0556 223.062 96.9566 212.021 107.998V107.998C207.594 112.424 200.416 112.422 195.99 107.996V107.996C184.952 96.9581 184.948 79.0582 195.986 68.0204L204.006 60Z" fill="#A30909"/>
<path d="M86.0061 60L94.0208 68.0147C105.062 79.0556 105.062 96.9566 94.0208 107.998V107.998C89.5944 112.424 82.4162 112.422 77.9898 107.996V107.996C66.952 96.9581 66.9479 79.0582 77.9857 68.0204L86.0061 60Z" fill="#A30909"/>
<rect x="180" y="116" width="58" height="58" fill="#D56666"/>
<rect x="116" y="174" width="64" height="64" fill="#B47171"/>
<rect x="58" width="58" height="58" fill="#FFC5C5"/>
<rect y="58" width="58" height="58" fill="#FFD2D2"/>
<rect x="58" y="116" width="58" height="58" fill="#FFBDBD"/>
</svg>
